<?xml version="1.0" encoding="UTF-8" standalone="no"?>
<!-- Created with Inkscape (http://www.inkscape.org/) -->

<svg
   width="1080"
   height="1229.2812"
   viewBox="0 0 285.74999 325.24733"
   version="1.1"
   id="svg1"
   inkscape:version="1.4-dev (1:1.4.0-dev+202403210151+2fe0648968)"
   sodipodi:docname="pumpkin.svg"
   xmlns:inkscape="http://www.inkscape.org/namespaces/inkscape"
   xmlns:sodipodi="http://sodipodi.sourceforge.net/DTD/sodipodi-0.dtd"
   xmlns="http://www.w3.org/2000/svg"
   xmlns:svg="http://www.w3.org/2000/svg">
  <sodipodi:namedview
     id="namedview1"
     pagecolor="#505050"
     bordercolor="#eeeeee"
     borderopacity="1"
     inkscape:showpageshadow="0"
     inkscape:pageopacity="0"
     inkscape:pagecheckerboard="0"
     inkscape:deskcolor="#505050"
     inkscape:document-units="px"
     inkscape:zoom="0.39166667"
     inkscape:cx="511.91489"
     inkscape:cy="525.95744"
     inkscape:window-width="1920"
     inkscape:window-height="995"
     inkscape:window-x="0"
     inkscape:window-y="0"
     inkscape:window-maximized="1"
     inkscape:current-layer="layer4" />
  <defs
     id="defs1" />
  <g
     inkscape:groupmode="layer"
     id="layer3"
     inkscape:label="OuterBoundary"
     transform="translate(0,39.497332)">
    <path
       id="path3"
       style="fill:#ff6600;stroke-width:8.46667"
       d="m 161.86557,-39.497332 c 0,0 -26.43038,29.09498 -29.52739,80.04318 -4.29724,-1.25029 -8.76165,-1.91448 -13.27568,-1.91668 -8.3333,0.0382 -16.51071,2.26235 -23.71535,6.45025 C 88.08549,40.858578 79.83673,38.633258 71.4375,38.629168 0,38.629168 0,181.50417 0,181.50417 0,194.87607 1.81869,284.2625 71.4375,285.75 c 8.3713,-0.0373 16.58488,-2.28044 23.81302,-6.50348 7.22783,4.22286 15.44103,6.46604 23.81198,6.50348 8.3713,-0.0373 16.58488,-2.28044 23.81302,-6.50348 7.22783,4.22286 15.44103,6.46604 23.81198,6.50348 8.3713,-0.0373 16.58488,-2.28044 23.81302,-6.50348 7.22783,4.22286 15.44103,6.46604 23.81198,6.50348 69.62248,-1.48757 71.4375,-90.88738 71.4375,-104.24583 0,0 0,-142.875002 -71.4375,-142.875002 -8.3333,0.0382 -16.51071,2.26235 -23.71535,6.45026 -7.26166,-4.22085 -15.51042,-6.44616 -23.90965,-6.45026 -5.13741,0.0236 -10.18449,0.97348 -15.012,2.60656 5.39966,-26.00333 47.77486,-59.0336 47.77486,-59.0336 z"
       sodipodi:nodetypes="cccccccccccccccccccc"
       inkscape:label="pumpkin" />
  </g>
  <g
     inkscape:groupmode="layer"
     id="layer4"
     inkscape:label="InnerBoundary"
     transform="translate(0,39.497332)">
    <path
       id="path1"
       style="fill:#f9f9f9;stroke-width:8.46665"
       inkscape:label="righteye"
       inkscape:transform-center-x="-1.3402171e-06"
       inkscape:transform-center-y="-6.3500003"
       d="M 81.19046,83.948894 103.1875,122.04889 H 59.193414 Z" />
    <path
       id="path1-5"
       style="fill:#f9f9f9;stroke-width:8.46665"
       inkscape:label="lefteye"
       inkscape:transform-center-x="-1.3402171e-06"
       inkscape:transform-center-y="-6.3500003"
       d="m 204.55955,83.948894 21.99704,38.099996 H 182.5625 Z" />
    <path
       id="path2"
       style="display:inline;fill:#f9f9f9;stroke-width:8.46667"
       d="m 47.625,187.20926 a 102.64156,102.64156 0 0 0 95.24948,65.05288 V 240.2608 h 19.05 v 9.98647 a 102.64156,102.64156 0 0 0 76.20052,-63.03801 205.28312,205.28312 0 0 1 -38.35632,15.47296 v 18.82159 h -19.05 v -14.1609 a 205.28312,205.28312 0 0 1 -37.8442,3.86282 205.28312,205.28312 0 0 1 -44.98743,-5.35936 v 9.69553 h -19.05 V 200.5733 A 205.28312,205.28312 0 0 1 47.625,187.20926 Z"
       inkscape:label="mouth" />
    <path
       id="path1-5-8"
       style="fill:#f9f9f9;stroke-width:8.46665"
       inkscape:label="nose"
       inkscape:transform-center-x="-1.3402171e-06"
       inkscape:transform-center-y="-6.3500003"
       d="m 142.875,122.0489 21.99704,38.1 -43.99408,-1e-5 z" />
  </g>
</svg>
