<?xml version="1.0" encoding="UTF-8" standalone="no"?>
<!-- Created with Inkscape (http://www.inkscape.org/) -->

<svg
   width="1080"
   height="1229.2812"
   viewBox="0 0 285.74999 325.24733"
   version="1.1"
   id="svg1"
   inkscape:version="1.4-dev (1:1.4.0-dev+202403210151+2fe0648968)"
   sodipodi:docname="pumpkin-smooth.svg"
   xmlns:inkscape="http://www.inkscape.org/namespaces/inkscape"
   xmlns:sodipodi="http://sodipodi.sourceforge.net/DTD/sodipodi-0.dtd"
   xmlns="http://www.w3.org/2000/svg"
   xmlns:svg="http://www.w3.org/2000/svg">
  <sodipodi:namedview
     id="namedview1"
     pagecolor="#505050"
     bordercolor="#eeeeee"
     borderopacity="1"
     inkscape:showpageshadow="0"
     inkscape:pageopacity="0"
     inkscape:pagecheckerboard="0"
     inkscape:deskcolor="#505050"
     inkscape:document-units="px"
     inkscape:zoom="0.61173958"
     inkscape:cx="679.21058"
     inkscape:cy="774.83951"
     inkscape:window-width="1920"
     inkscape:window-height="995"
     inkscape:window-x="1920"
     inkscape:window-y="0"
     inkscape:window-maximized="1"
     inkscape:current-layer="layer4" />
  <defs
     id="defs1" />
  <g
     inkscape:groupmode="layer"
     id="layer3"
     inkscape:label="OuterBoundary"
     transform="translate(0,39.497332)">
    <path
       id="path3"
       style="fill:#ff6600;stroke-width:8.46667"
       d="m 150.40406,-35.388489 c 15.66157,-7.508566 49.66201,-4.108843 49.0463,17.590617 -0.59353,20.9180681 -52.59627,46.18165 -47.77486,59.0336 1.78394,4.755259 13.76718,1.742137 18.90459,1.718537 8.39923,0.0041 15.66833,3.540991 23.58527,3.09831 7.32645,-0.409664 13.03716,-5.244393 21.37046,-5.282593 71.4375,0 70.21417,86.315398 70.21418,140.734188 0,42.12483 -1.81502,102.75826 -71.4375,104.24583 -8.37095,-0.0374 -15.58394,-6.50343 -23.81198,-6.50348 -8.22837,-5e-5 -15.44172,6.46618 -23.81302,6.50348 -8.37095,-0.0374 -15.58394,-6.50343 -23.81198,-6.50348 -8.22837,-5e-5 -15.44172,6.46618 -23.81302,6.50348 -8.37095,-0.0374 -15.58394,-6.50343 -23.81198,-6.50348 C 87.022147,279.24647 79.8088,285.7127 71.4375,285.75 1.81869,284.2625 0,223.629 0,181.50417 0,122.04889 0,38.629168 71.4375,38.629168 c 8.39923,0.0041 15.667658,6.910108 23.90965,6.45025 5.5835,-0.311529 7.27754,-6.106219 15.61084,-6.144419 4.51403,0.0022 10.88237,5.538905 12.81693,2.834171 11.06245,-15.466493 2.09513,-65.395411 26.62914,-77.157659 z"
       sodipodi:nodetypes="asscacscacacacscacsa"
       inkscape:label="pumpkin" />
  </g>
  <g
     inkscape:groupmode="layer"
     id="layer4"
     inkscape:label="InnerBoundary"
     transform="translate(0,39.497332)">
    <path
       id="path2"
       style="display:inline;fill:#f9f9f9;stroke-width:8.46667"
       d="m 47.625,182.9759 c 6.336426,-9.40092 31.21205,2.02704 31.21205,13.36404 0,0 -2.432132,12.46142 0,14.9686 2.092682,2.15726 11.713383,1.78596 19.05,0 3.14014,-0.76441 0,-9.69553 0,-9.69553 0,-15.1481 29.83933,5.35536 44.98743,5.35936 12.70761,0.003 37.8442,-16.57043 37.8442,-3.86282 0,0 -3.33776,10.82314 0,14.1609 4.49013,4.49013 14.55987,4.49013 19.05,0 4.43629,-4.43629 0,-18.82159 0,-18.82159 0,-13.8217 38.72685,-29.28969 38.35632,-15.47296 -0.94198,35.12569 -44.81883,83.83666 -74.77728,64.60358 -6.02504,-3.86803 -0.91963,-10.33681 -3.98508,-12.26366 -5.37614,-3.37929 -11.99803,-3.77851 -16.48816,0.71162 -2.82874,2.82874 0,12.00134 0,12.00134 C 95.25052,275.01316 35.897816,200.37471 47.625,182.9759 Z"
       inkscape:label="mouth"
       sodipodi:nodetypes="ssssssssssssssss" />
    <path
       id="path1-5-8"
       style="fill:#f9f9f9;stroke-width:8.46665"
       inkscape:label="nose"
       inkscape:transform-center-x="-1.3402171e-06"
       inkscape:transform-center-y="-6.3500003"
       d="m 142.875,122.0489 c 4.17501,-1e-5 23.90765,34.38452 21.99704,38.1 -1.91061,3.71548 -41.16598,3.53857 -43.99408,-1e-5 -2.8281,-3.53858 17.82203,-38.09998 21.99704,-38.09999 z"
       sodipodi:nodetypes="zzzz" />
    <path
       id="path1"
       style="fill:#f9f9f9;stroke-width:8.46665"
       inkscape:label="righteye"
       inkscape:transform-center-x="-1.3402171e-06"
       inkscape:transform-center-y="-6.3500003"
       d="m 103.1875,122.04889 c -1.8274,3.06634 -41.707943,2.45468 -43.994086,0 -2.286143,-2.45468 18.953912,-38.099997 21.997046,-38.099996 3.043134,10e-7 23.82444,35.033656 21.99704,38.099996 z"
       sodipodi:nodetypes="zzzz" />
    <path
       id="path1-5"
       style="fill:#f9f9f9;stroke-width:8.46665"
       inkscape:label="lefteye"
       inkscape:transform-center-x="-1.3402171e-06"
       inkscape:transform-center-y="-6.3500003"
       d="m 226.55659,122.04889 c -2.13323,2.84128 -41.55503,2.0767 -43.99409,0 -2.43906,-2.0767 18.801,-38.099995 21.99705,-38.099996 3.19605,-10e-7 24.13027,35.258716 21.99704,38.099996 z"
       sodipodi:nodetypes="zzzz" />
  </g>
  <g
     inkscape:groupmode="layer"
     id="layer1"
     inkscape:label="excess" />
</svg>
