<?xml version="1.0" encoding="UTF-8" standalone="no"?>
<!-- Created with Inkscape (http://www.inkscape.org/) -->

<svg
   width="1920"
   height="1920"
   viewBox="0 0 507.99999 508"
   version="1.1"
   id="svg1"
   inkscape:version="1.4-dev (1:1.4.0-dev+202403210151+2fe0648968)"
   sodipodi:docname="pumpkin.svg"
   xmlns:inkscape="http://www.inkscape.org/namespaces/inkscape"
   xmlns:sodipodi="http://sodipodi.sourceforge.net/DTD/sodipodi-0.dtd"
   xmlns="http://www.w3.org/2000/svg"
   xmlns:svg="http://www.w3.org/2000/svg">
  <sodipodi:namedview
     id="namedview1"
     pagecolor="#505050"
     bordercolor="#eeeeee"
     borderopacity="1"
     inkscape:showpageshadow="0"
     inkscape:pageopacity="0"
     inkscape:pagecheckerboard="0"
     inkscape:deskcolor="#505050"
     inkscape:document-units="px"
     inkscape:zoom="0.39166667"
     inkscape:cx="958.7234"
     inkscape:cy="960"
     inkscape:window-width="1920"
     inkscape:window-height="995"
     inkscape:window-x="0"
     inkscape:window-y="0"
     inkscape:window-maximized="1"
     inkscape:current-layer="layer2" />
  <defs
     id="defs1">
    <marker
       style="overflow:visible"
       id="ArrowWide"
       refX="0"
       refY="0"
       orient="auto-start-reverse"
       inkscape:stockid="Wide arrow"
       markerWidth="1"
       markerHeight="1"
       viewBox="0 0 1 1"
       inkscape:isstock="true"
       inkscape:collect="always"
       preserveAspectRatio="xMidYMid">
      <path
         style="fill:none;stroke:context-stroke;stroke-width:1;stroke-linecap:butt"
         d="M 3,-3 0,0 3,3"
         transform="rotate(180,0.125,0)"
         sodipodi:nodetypes="ccc"
         id="path4" />
    </marker>
  </defs>
  <g
     inkscape:groupmode="layer"
     id="layer2"
     inkscape:label="OuterBoundary">
    <path
       id="path3"
       style="display:inline;fill:#ff6600;stroke:#000000;stroke-width:4.23333;stroke-dasharray:none;stroke-opacity:1;marker-mid:url(#ArrowWide)"
       d="m 283.0437,0 63.57177,47.016768 c 0,0 -69.22325,42.371721 -68.90484,88.158962 20.42895,-3.01561 36.72398,-2.82028 55.82709,6.5412 12.00742,-5.14153 25.63612,-7.87221 39.52472,-7.91941 134.9375,0 134.9375,187.10124 134.9375,187.10124 0,111.70181 -48.0869,156.69611 -86.85,174.83635 -11.98116,6.73625 -26.31839,10.82047 -41.33494,11.77499 -12.97345,1.39102 -30.3961,-0.58967 -46.43952,-7.49411 -12.04683,5.18447 -25.736,7.93831 -39.68801,7.98401 -13.95166,-0.0458 -27.64046,-2.79967 -39.68699,-7.98401 -12.04683,5.18447 -25.736,7.93831 -39.68801,7.98401 -13.95166,-0.0458 -27.64045,-2.79967 -39.68698,-7.98401 0,0 -38.93227,7.97137 -46.44055,7.49411 -7.50828,-0.47726 -29.353784,-5.03874 -41.334945,-11.77499 C 48.086893,477.59487 0,432.60057 0,320.89876 c 0,0 -2.65625e-6,-187.10124 134.9375,-187.10124 13.99907,0.005 27.74733,2.73722 39.85028,7.91941 14.79964,-6.33715 34.12179,-9.85415 54.81216,-6.73137 C 229.96758,59.099819 283.0437,0 283.0437,0 Z"
       inkscape:label="pumpkin"
       sodipodi:nodetypes="ccccccccccccczcccccc" />
  </g>
  <g
     inkscape:label="InnerBoundaries"
     inkscape:groupmode="layer"
     id="layer1"
     style="display:inline">
    <path
       id="path1"
       style="fill:#f9f9f9;stroke-width:4.23333329;stroke:#000000;stroke-opacity:1;stroke-dasharray:none;marker-mid:url(#ArrowWide)"
       inkscape:label="righteye"
       inkscape:transform-center-y="-10.998522"
       d="m 133.35,185.99895 38.1,65.99114 H 95.249998 Z" />
    <path
       id="path1-7"
       style="fill:#f9f9f9;stroke-width:4.23333329;stroke:#000000;stroke-opacity:1;stroke-dasharray:none;marker-mid:url(#ArrowWide)"
       inkscape:label="lefteye"
       inkscape:transform-center-y="-10.998522"
       d="m 374.65,185.99895 38.09999,65.99114 H 336.55 Z" />
    <path
       id="path1-0"
       style="fill:#f9f9f9;stroke-width:4.23333329;stroke:#000000;stroke-opacity:1;stroke-dasharray:none;marker-mid:url(#ArrowWide)"
       inkscape:label="nose"
       inkscape:transform-center-y="-10.998522"
       d="m 254,251.99038 38.09999,65.99114 H 215.9 Z" />
    <path
       id="path2"
       style="fill:#f9f9f9;stroke:#000000;stroke-width:4.23333;stroke-dasharray:none;stroke-opacity:1;marker-mid:url(#ArrowWide)"
       d="m 81.567044,346.20745 a 231.53979,139.27777 0 0 0 52.826276,26.29983 v 30.40005 h 34.43383 v -20.17094 a 231.53979,139.27777 0 0 0 84.90905,10.05763 231.53979,139.27777 0 0 0 58.82447,-4.86892 v 25.27344 h 34.43383 v -32.41149 a 231.53979,139.27777 0 0 0 78.91086,-34.5796 173.65484,139.27777 0 0 1 -137.73533,118.10657 v -27.2819 H 253.7362 v 30.2749 A 173.65484,139.27777 0 0 1 81.567044,346.20745 Z"
       inkscape:label="mouth" />
  </g>
</svg>
