<?xml version="1.0" encoding="UTF-8" standalone="no"?>
<!-- Created with Inkscape (http://www.inkscape.org/) -->

<svg
   width="1920"
   height="1920"
   viewBox="0 0 507.99999 508"
   version="1.1"
   id="svg1"
   inkscape:version="1.4-dev (1:1.4.0-dev+202403210151+2fe0648968)"
   sodipodi:docname="pumpkin.svg"
   xmlns:inkscape="http://www.inkscape.org/namespaces/inkscape"
   xmlns:sodipodi="http://sodipodi.sourceforge.net/DTD/sodipodi-0.dtd"
   xmlns="http://www.w3.org/2000/svg"
   xmlns:svg="http://www.w3.org/2000/svg">
  <sodipodi:namedview
     id="namedview1"
     pagecolor="#505050"
     bordercolor="#eeeeee"
     borderopacity="1"
     inkscape:showpageshadow="0"
     inkscape:pageopacity="0"
     inkscape:pagecheckerboard="0"
     inkscape:deskcolor="#505050"
     inkscape:document-units="px"
     inkscape:zoom="0.37886287"
     inkscape:cx="959.45005"
     inkscape:cy="937.01449"
     inkscape:window-width="1920"
     inkscape:window-height="995"
     inkscape:window-x="0"
     inkscape:window-y="0"
     inkscape:window-maximized="1"
     inkscape:current-layer="layer2" />
  <defs
     id="defs1">
    <marker
       style="overflow:visible"
       id="ArrowWide"
       refX="0"
       refY="0"
       orient="auto-start-reverse"
       inkscape:stockid="Wide arrow"
       markerWidth="1"
       markerHeight="1"
       viewBox="0 0 1 1"
       inkscape:isstock="true"
       inkscape:collect="always"
       preserveAspectRatio="xMidYMid">
      <path
         style="fill:none;stroke:context-stroke;stroke-width:1;stroke-linecap:butt"
         d="M 3,-3 0,0 3,3"
         transform="rotate(180,0.125,0)"
         sodipodi:nodetypes="ccc"
         id="path4" />
    </marker>
  </defs>
  <g
     inkscape:groupmode="layer"
     id="layer2"
     inkscape:label="OuterBoundary">
    <path
       id="path3"
       style="display:inline;fill:#ff6600;stroke:#000000;stroke-width:4.23333;stroke-dasharray:none;stroke-opacity:1;marker-mid:url(#ArrowWide)"
       d="m 283.0437,0 c 0,0 -53.07612,59.099819 -53.44376,134.98556 -20.69037,-3.12278 -40.01252,0.39422 -54.81216,6.73137 -12.10295,-5.18219 -25.85121,-7.91441 -39.85028,-7.91941 C -2.65625e-6,133.79752 0,320.89876 0,320.89876 c 0,111.70181 48.086893,156.69611 86.849995,174.83635 11.981161,6.73625 33.826665,11.29773 41.334945,11.77499 7.50828,0.47726 46.44055,-7.49411 46.44055,-7.49411 12.04653,5.18434 25.73532,7.93821 39.68698,7.98401 13.95201,-0.0457 27.64118,-2.79954 39.68801,-7.98401 12.04653,5.18434 25.73533,7.93821 39.68699,7.98401 13.95201,-0.0457 27.64118,-2.79954 39.68801,-7.98401 16.04342,6.90444 33.46607,8.88513 46.43952,7.49411 15.01655,-0.95452 29.35378,-5.03874 41.33494,-11.77499 38.7631,-18.14024 86.85,-63.13454 86.85,-174.83635 0,0 0,-187.10124 -134.9375,-187.10124 -13.8886,0.0472 -27.5173,2.77788 -39.52472,7.91941 -19.10311,-9.36148 -35.39814,-9.55681 -55.82709,-6.5412 -0.31841,-45.787241 68.90484,-88.158962 68.90484,-88.158962 z"
       inkscape:label="pumpkin"
       sodipodi:nodetypes="cccccczccccccccccccc" />
  </g>
  <g
     inkscape:label="InnerBoundaries"
     inkscape:groupmode="layer"
     id="layer1"
     style="display:inline">
    <path
       id="path1"
       style="fill:#f9f9f9;stroke-width:4.23333329;stroke:#000000;stroke-opacity:1;stroke-dasharray:none;marker-mid:url(#ArrowWide)"
       inkscape:label="righteye"
       inkscape:transform-center-y="-10.998522"
       d="M 133.35,185.99895 95.249998,251.99009 H 171.45 Z" />
    <path
       id="path1-7"
       style="fill:#f9f9f9;stroke-width:4.23333329;stroke:#000000;stroke-opacity:1;stroke-dasharray:none;marker-mid:url(#ArrowWide)"
       inkscape:label="lefteye"
       inkscape:transform-center-y="-10.998522"
       d="m 374.65,185.99895 -38.1,65.99114 h 76.19999 z" />
    <path
       id="path1-0"
       style="fill:#f9f9f9;stroke-width:4.23333329;stroke:#000000;stroke-opacity:1;stroke-dasharray:none;marker-mid:url(#ArrowWide)"
       inkscape:label="nose"
       inkscape:transform-center-y="-10.998522"
       d="m 254,251.99038 -38.1,65.99114 h 76.19999 z" />
    <path
       id="path2"
       style="fill:#f9f9f9;stroke:#000000;stroke-width:4.23333;stroke-dasharray:none;stroke-opacity:1;marker-mid:url(#ArrowWide)"
       d="M 81.567044,346.20745 A 173.65484,139.27777 0 0 0 253.7362,467.30702 v -30.2749 h 34.43383 v 27.2819 a 173.65484,139.27777 0 0 0 137.73533,-118.10657 231.53979,139.27777 0 0 1 -78.91086,34.5796 v 32.41149 H 312.56067 V 387.9251 a 231.53979,139.27777 0 0 1 -58.82447,4.86892 231.53979,139.27777 0 0 1 -84.90905,-10.05763 v 20.17094 H 134.39332 V 372.50728 A 231.53979,139.27777 0 0 1 81.567044,346.20745 Z"
       inkscape:label="mouth" />
  </g>
</svg>
