<?xml version="1.0" encoding="UTF-8" standalone="no"?>
<!-- Created with Inkscape (http://www.inkscape.org/) -->

<svg
   width="100mm"
   height="100mm"
   viewBox="0 0 100 100"
   version="1.1"
   id="svg1"
   inkscape:version="1.4-dev (1:1.4.0-dev+202403210151+2fe0648968)"
   sodipodi:docname="hitchcock.svg"
   xml:space="preserve"
   xmlns:inkscape="http://www.inkscape.org/namespaces/inkscape"
   xmlns:sodipodi="http://sodipodi.sourceforge.net/DTD/sodipodi-0.dtd"
   xmlns="http://www.w3.org/2000/svg"
   xmlns:svg="http://www.w3.org/2000/svg"><sodipodi:namedview
     id="namedview1"
     pagecolor="#505050"
     bordercolor="#eeeeee"
     borderopacity="1"
     inkscape:showpageshadow="0"
     inkscape:pageopacity="0"
     inkscape:pagecheckerboard="0"
     inkscape:deskcolor="#505050"
     inkscape:document-units="mm"
     inkscape:zoom="1.9896667"
     inkscape:cx="198.27442"
     inkscape:cy="208.07505"
     inkscape:window-width="1920"
     inkscape:window-height="995"
     inkscape:window-x="0"
     inkscape:window-y="0"
     inkscape:window-maximized="1"
     inkscape:current-layer="layer1" /><defs
     id="defs1"><marker
       style="overflow:visible"
       id="ArrowWideRounded"
       refX="0"
       refY="0"
       orient="auto-start-reverse"
       inkscape:stockid="Wide, rounded arrow"
       markerWidth="1"
       markerHeight="1"
       viewBox="0 0 1 1"
       inkscape:isstock="true"
       inkscape:collect="always"
       preserveAspectRatio="xMidYMid"><path
         style="fill:none;stroke:context-stroke;stroke-width:1;stroke-linecap:round"
         d="M 3,-3 0,0 3,3"
         transform="rotate(180,0.125,0)"
         sodipodi:nodetypes="ccc"
         id="path2" /></marker></defs><g
     inkscape:label="OuterBoundary"
     inkscape:groupmode="layer"
     id="layer1"><path
       id="path5"
       style="fill:#000000;stroke:none;stroke-width:1;stroke-dasharray:none;stroke-opacity:1;marker-mid:url(#ArrowWideRounded)"
       d="m 50.75411,0.07242403 -0.96404,0.05114 c -1.012325,-0.0512457 -1.307328,0.3449299 -1.935194,0.591419 -0.54784,0.2150725 -1.06289,0.50599127 -1.588635,0.77052297 -0.458378,0.2306355 -0.912264,0.4701722 -1.364904,0.711875 -0.403766,0.2156049 -0.821816,0.4081222 -1.204954,0.658558 -1.750835,1.1444236 -3.470478,2.3735985 -4.966141,3.83583 -0.64171,0.627367 -1.224643,1.3277491 -1.693491,2.09297 -0.183113,0.2988637 -0.276905,0.644188 -0.427915,0.960488 -0.191338,0.400767 -0.404373,0.790811 -0.605439,1.186787 -0.290636,0.572375 -0.589656,1.140636 -0.868665,1.718768 -0.125847,0.260766 -0.287415,0.509618 -0.363145,0.789085 -0.157772,0.582263 -0.114982,1.201041 -0.176932,1.801112 -0.0618,0.598644 -0.04248,1.212632 -0.194309,1.79499 -0.02482,0.09518 -0.06486,0.18721 -0.115519,0.27152 -1.119395,1.862837 -2.730349,3.38202 -4.099253,5.070009 -0.531608,0.655524 -1.583449,1.120352 -1.597719,1.964221 0.133484,1.667464 1.563542,2.221145 2.863888,2.574202 0.657681,0.727914 0.244945,1.952398 0.238345,2.933398 -0.0066,0.981694 -0.352238,1.953122 -0.277838,2.932015 0.0594,0.781502 0.127822,1.635351 0.573048,2.280369 0.217632,0.315293 0.646886,0.413984 0.942913,0.657175 0.129313,0.106233 0.300475,0.192529 0.361565,0.348335 0.148774,0.379449 -0.07521,0.813222 -0.06931,1.220752 0.0079,0.546043 -0.11226,1.148139 0.1404,1.632276 0.299026,0.572982 0.91363,0.948066 1.489704,1.241091 0.648718,0.329975 1.484302,0.173836 2.117457,0.53277 1.648273,0.934402 2.65542,2.704127 4.021055,4.017501 0.773467,0.743867 1.661595,1.374378 2.362516,2.186966 0.3639,0.421875 1.00368,0.826077 0.94311,1.379912 -0.119403,1.091788 -1.515964,1.60674 -2.403194,2.254105 -0.362393,0.264419 -0.839531,0.357478 -1.176321,0.653819 -4.200152,3.695711 -6.681308,8.97595 -9.954398,13.513178 -5.623193,7.794993 -12.163487,15.044188 -16.635751,23.551894 -1.925221,3.662399 -8.4285837,11.647496 -4.2909947,11.647496 72.9404047,0 0,0 72.9404047,0 2.099664,0 2.034431,-3.71259 2.615865,-5.730144 C 87.404877,87.17839 88.950354,79.780754 88.282644,72.536526 87.559759,64.693723 84.753966,56.965402 80.923183,50.083743 78.718975,46.124081 74.92437,43.279377 72.173543,39.677932 72.002941,39.454576 71.852437,39.216554 71.693694,38.98462 71.47534,38.665591 71.271509,38.336427 71.043627,38.024132 c -0.326456,-0.447382 -0.68678,-0.869057 -1.026245,-1.30665 -0.26674,-0.343846 -0.6126,-0.640758 -0.794022,-1.036316 -0.0741,-0.161555 -0.0931,-0.344903 -0.1092,-0.52191 -0.02059,-0.226488 -0.05811,-0.46739 0.01698,-0.682057 0.19218,-0.549368 0.710501,-0.922184 1.054088,-1.391957 0.377654,-0.516351 0.823024,-0.994473 1.107009,-1.567704 0.250962,-0.506574 0.31973,-1.085124 0.50947,-1.617663 0.08798,-0.246918 0.181329,-0.492483 0.291266,-0.730437 0.145351,-0.314606 0.336761,-0.606328 0.485773,-0.919217 0.32579,-0.68408 0.614161,-1.385874 0.890979,-2.091194 0.185611,-0.472928 0.334414,-0.959646 0.515788,-1.434215 0.07479,-0.195699 0.154755,-0.389412 0.235975,-0.582532 0.118516,-0.281801 0.255747,-0.555761 0.366699,-0.840625 0.365254,-0.937771 0.741788,-1.87765 0.982603,-2.854805 0.32452,-1.316805 0.489114,-2.671507 0.615119,-4.021845 0.107295,-1.149824 0.32273,-2.325733 0.118875,-3.462416 -0.09967,-0.555736 -0.426106,-1.045733 -0.642761,-1.567112 C 75.456103,10.899931 75.259122,10.40039 75.037429,9.911697 74.92902,9.6727229 74.819293,9.4338013 74.692649,9.20397 74.537934,8.9231961 74.379069,8.6425261 74.186734,8.386054 73.759935,7.8169331 73.273732,7.2908416 72.758838,6.799985 72.31675,6.3785354 71.829241,6.0061392 71.340025,5.6404491 70.212728,4.7977918 69.082849,3.9435909 67.851938,3.261149 67.481731,3.0558987 67.084203,2.9027677 66.689242,2.750495 65.849996,2.4269331 64.990479,2.1570223 64.129653,1.896245 63.824789,1.8038901 63.515189,1.727956 63.207671,1.644867 62.965658,1.5794773 62.725711,1.505613 62.481184,1.450361 62.017214,1.3455241 61.546925,1.270521 61.077971,1.190887 59.329661,0.89400263 57.583795,0.56618043 55.820564,0.37711803 54.138338,0.19674133 50.75411,0.07242403 50.75411,0.07242403 Z"
       inkscape:label="hitchcock"
       sodipodi:nodetypes="ccaaaaaaaaaaaaaaaaaaaaaaaaaaaaaaaassaaaaaaaaaaaaaaaaaaaaaaaaaaaaaaaaaaac" /></g><g
     inkscape:groupmode="layer"
     id="layer2"
     inkscape:label="InnerBoundaries" /><g
     inkscape:groupmode="layer"
     id="layer3"
     inkscape:label="temp" /></svg>
