<?xml version="1.0" encoding="UTF-8" standalone="no"?>
<!-- Created with Inkscape (http://www.inkscape.org/) -->

<svg
   width="100mm"
   height="100mm"
   viewBox="0 0 100 100"
   version="1.1"
   id="svg1"
   inkscape:version="1.4-dev (1:1.4.0-dev+202403210151+2fe0648968)"
   sodipodi:docname="hitchcock.svg"
   xml:space="preserve"
   xmlns:inkscape="http://www.inkscape.org/namespaces/inkscape"
   xmlns:sodipodi="http://sodipodi.sourceforge.net/DTD/sodipodi-0.dtd"
   xmlns="http://www.w3.org/2000/svg"
   xmlns:svg="http://www.w3.org/2000/svg"><sodipodi:namedview
     id="namedview1"
     pagecolor="#505050"
     bordercolor="#eeeeee"
     borderopacity="1"
     inkscape:showpageshadow="0"
     inkscape:pageopacity="0"
     inkscape:pagecheckerboard="0"
     inkscape:deskcolor="#505050"
     inkscape:document-units="mm"
     inkscape:zoom="2.5931035"
     inkscape:cx="184.52792"
     inkscape:cy="291.54254"
     inkscape:window-width="1920"
     inkscape:window-height="995"
     inkscape:window-x="0"
     inkscape:window-y="0"
     inkscape:window-maximized="1"
     inkscape:current-layer="layer1" /><defs
     id="defs1"><marker
       style="overflow:visible"
       id="ArrowWideRounded"
       refX="0"
       refY="0"
       orient="auto-start-reverse"
       inkscape:stockid="Wide, rounded arrow"
       markerWidth="1"
       markerHeight="1"
       viewBox="0 0 1 1"
       inkscape:isstock="true"
       inkscape:collect="always"
       preserveAspectRatio="xMidYMid"><path
         style="fill:none;stroke:context-stroke;stroke-width:1;stroke-linecap:round"
         d="M 3,-3 0,0 3,3"
         transform="rotate(180,0.125,0)"
         sodipodi:nodetypes="ccc"
         id="path2" /></marker></defs><g
     inkscape:label="OuterBoundary"
     inkscape:groupmode="layer"
     id="layer1"><path
       id="path5"
       style="fill:#000000;stroke:none;stroke-width:1;stroke-dasharray:none;stroke-opacity:1;marker-mid:url(#ArrowWideRounded)"
       d="m 51.748152,1.0569494e-4 c 0,0 3.384228,0.12431729506 5.066454,0.30469399506 1.763231,0.18906239 3.509097,0.51688457 5.257407,0.81376901 0.468954,0.079634 0.939243,0.1546371 1.403213,0.259474 0.244527,0.055252 0.484474,0.1291163 0.726487,0.194506 0.307518,0.083089 0.617118,0.1590231 0.921982,0.251378 0.860826,0.2607773 1.720343,0.5306881 2.559589,0.85425 0.394961,0.1522727 0.792489,0.3054037 1.162696,0.510654 1.230911,0.6824419 2.36079,1.5366427 3.488087,2.3793 0.489216,0.3656902 0.976725,0.7380864 1.418813,1.159536 0.514894,0.4908566 1.001097,1.0169481 1.427896,1.586069 0.192335,0.2564721 0.3512,0.5371421 0.505915,0.817916 0.126644,0.2298313 0.236371,0.4687529 0.34478,0.707727 0.221693,0.4886933 0.418674,0.9882343 0.624594,1.4837803 0.216655,0.521379 0.543094,1.011376 0.642761,1.567112 0.203855,1.136683 -0.01158,2.312592 -0.118875,3.462416 -0.126005,1.350338 -0.290599,2.70504 -0.615119,4.021845 -0.240815,0.977155 -0.617349,1.917034 -0.982603,2.854805 -0.110952,0.284864 -0.248183,0.558824 -0.366699,0.840625 -0.08122,0.19312 -0.161182,0.386833 -0.235975,0.582532 -0.181374,0.474569 -0.330177,0.961287 -0.515788,1.434215 -0.276818,0.70532 -0.565189,1.407114 -0.890979,2.091194 -0.149012,0.312889 -0.340422,0.604611 -0.485773,0.919217 -0.109937,0.237954 -0.203291,0.483519 -0.291266,0.730437 -0.18974,0.532539 -0.258508,1.111089 -0.50947,1.617663 -0.283985,0.573231 -0.729355,1.051353 -1.107009,1.567704 -0.343587,0.469773 -0.861908,0.842589 -1.054088,1.391957 -0.07509,0.214667 -0.03757,0.455569 -0.01698,0.682057 0.0161,0.177007 0.0351,0.360355 0.1092,0.52191 0.181422,0.395558 0.527282,0.69247 0.794022,1.036316 0.339465,0.437593 0.699789,0.859268 1.026245,1.30665 0.227882,0.312295 0.431713,0.641459 0.650067,0.960488 0.158743,0.231934 0.309247,0.469956 0.479849,0.693312 2.750827,3.601445 6.545432,6.446149 8.74964,10.405811 3.830783,6.881659 6.636576,14.60998 7.359461,22.452783 0.667713,7.244228 -0.877767,14.641864 -2.892325,21.632303 -0.581434,2.017554 -0.516201,5.730144 -2.615865,5.730144 -72.940405,0 0,0 -72.940405,0 -4.137589,0 2.365774,-7.985097 4.290995,-11.647496 4.472264,-8.507706 11.012558,-15.756901 16.635751,-23.551894 3.27309,-4.537228 5.754246,-9.817467 9.954398,-13.513178 0.33679,-0.296341 0.813928,-0.3894 1.176321,-0.653819 0.88723,-0.647365 2.283791,-1.162317 2.403194,-2.254105 0.06057,-0.553835 -0.57921,-0.958037 -0.94311,-1.379912 -0.700921,-0.812588 -1.589049,-1.443099 -2.362516,-2.186966 -1.365635,-1.313374 -2.372782,-3.083099 -4.021055,-4.017501 -0.633155,-0.358934 -1.468739,-0.202795 -2.117457,-0.53277 -0.576074,-0.293025 -1.190678,-0.668109 -1.489704,-1.241091 -0.25266,-0.484137 -0.132458,-1.086233 -0.1404,-1.632276 -0.0059,-0.40753 0.218084,-0.841303 0.06931,-1.220752 -0.06109,-0.155806 -0.232252,-0.242102 -0.361565,-0.348335 -0.296027,-0.243191 -0.725281,-0.341882 -0.942913,-0.657175 -0.445226,-0.645018 -0.513649,-1.498867 -0.573048,-2.280369 -0.0744,-0.978893 0.271259,-1.950321 0.277838,-2.932015 0.0066,-0.981 0.419336,-2.205484 -0.238345,-2.933398 -1.300346,-0.353057 -2.730404,-0.906738 -2.863888,-2.574202 0.01427,-0.843869 1.066111,-1.308697 1.597719,-1.964221 1.368904,-1.687989 2.979858,-3.207172 4.099253,-5.070009 0.05066,-0.08431 0.0907,-0.176344 0.115519,-0.27152 0.151833,-0.582358 0.132505,-1.196346 0.194309,-1.79499 0.06195,-0.600071 0.01916,-1.218849 0.176932,-1.801112 0.07573,-0.279467 0.237298,-0.528319 0.363145,-0.789085 0.279009,-0.578132 0.578029,-1.146393 0.868665,-1.718768 0.201066,-0.395976 0.414101,-0.78602 0.605439,-1.1867873 0.15101,-0.3163 0.244802,-0.6616243 0.427915,-0.960488 0.468848,-0.7652209 1.051781,-1.465603 1.693491,-2.09297 1.495663,-1.4622316 3.215306,-2.6914065 4.966141,-3.83583 0.383138,-0.2504358 0.801188,-0.4429531 1.204954,-0.658558 0.45264,-0.2417028 0.906526,-0.4812395 1.364904,-0.711875 C 47.786028,1.148656 48.301078,0.8577372 48.848918,0.64266469 49.476784,0.39617555 49.771787,0 50.784112,0.05124569 Z"
       inkscape:label="hitchcock"
       sodipodi:nodetypes="caaaaaaaaaaaaaaaaaaaaaaaaaaaaaaaaaaassaaaaaaaaaaaaaaaaaaaaaaaaaaaaaaaacc" /></g><g
     inkscape:groupmode="layer"
     id="layer2"
     inkscape:label="InnerBoundaries" /><g
     inkscape:groupmode="layer"
     id="layer3"
     inkscape:label="temp" /></svg>
